<?xml version="1.0" encoding="UTF-8"?>
<svg version="1.1" xmlns="http://www.w3.org/2000/svg" width="594" height="274">
<path d="M0 0 C4.88931866 0.44448351 8.609666 2.51877232 12 6 C14.1446358 12.18159731 12.24415945 18.73807351 11 25 C14.63 24.67 18.26 24.34 22 24 C22.47179687 21.65261719 22.47179687 21.65261719 22.953125 19.2578125 C23.38452466 17.21335324 23.81686519 15.16909236 24.25 13.125 C24.45496094 12.09246094 24.65992188 11.05992187 24.87109375 9.99609375 C25.08378906 9.00996094 25.29648437 8.02382812 25.515625 7.0078125 C25.70415039 6.09660645 25.89267578 5.18540039 26.08691406 4.24658203 C27 2 27 2 28.96557617 0.63745117 C31 0 31 0 33.03515625 0.79296875 C33.70417969 1.25316406 34.37320313 1.71335938 35.0625 2.1875 C35.73410156 2.63480469 36.40570313 3.08210937 37.09765625 3.54296875 C38.93720698 4.95190596 40.54654505 6.1922654 42 8 C41.89437595 14.23181874 40.27092147 19.91549693 38.65625 25.90966797 C36.59819678 33.92321269 35.55008294 42.10703351 34.4831543 50.30249023 C34.33273682 51.38473877 34.18231934 52.4669873 34.02734375 53.58203125 C33.90093506 54.55374268 33.77452637 55.5254541 33.64428711 56.52661133 C32.93327483 59.25615485 32.25490351 60.33876785 30 62 C25.79006822 62 22.83209543 59.80931607 19.453125 57.546875 C17.45837452 55.42343094 17.28849294 53.88074838 17 51 C17.15459152 47.30476408 17.60088883 43.68069194 18 40 C14.37 40 10.74 40 7 40 C6.80664062 41.42054688 6.61328125 42.84109375 6.4140625 44.3046875 C6.15148007 46.16152038 5.88843527 48.01828792 5.625 49.875 C5.43550781 51.28072266 5.43550781 51.28072266 5.2421875 52.71484375 C5.11328125 53.61074219 4.984375 54.50664062 4.8515625 55.4296875 C4.73635254 56.25710449 4.62114258 57.08452148 4.50244141 57.93701172 C4 60 4 60 2 62 C-2.94132864 62 -5.87616895 59.9883071 -9.6796875 57.15625 C-13.61419364 50.73066601 -10.15867951 40.73684472 -8.6875 33.875 C-8.22500774 31.65760477 -7.76276736 29.44015699 -7.30078125 27.22265625 C-7.07600098 26.1567627 -6.8512207 25.09086914 -6.61962891 23.99267578 C-6.08584838 21.41462942 -5.58252597 18.83510534 -5.10546875 16.24609375 C-4.97889893 15.56756348 -4.8523291 14.8890332 -4.72192383 14.18994141 C-4.40166575 12.45680656 -4.08728396 10.72258861 -3.7734375 8.98828125 C-2.92367233 5.70509764 -1.6139618 2.9737915 0 0 Z " fill="#01083C" transform="translate(282,134)"/>
<path d="M0 0 C11.4663453 0.93381221 23.24917517 6.67408665 30.9375 15.1875 C35.43966924 20.94027181 37.20164638 25.53521605 36.97265625 32.8828125 C35.59861169 42.27866009 27.84487339 50.28901082 20.625 55.9375 C14.55472495 60.21003974 9.30644203 63.46424959 1.6640625 63.0703125 C-3.02325412 62.21648903 -6.12371303 59.19739536 -9.3125 55.875 C-11.78235778 52.17021332 -11.94409771 49.94829805 -11.4375 45.6875 C-10.5854388 41.60540524 -9.5208799 37.58857395 -8.4375 33.5625 C-7.86950491 31.43635623 -7.30680143 29.30879011 -6.75 27.1796875 C-6.49863281 26.24495605 -6.24726563 25.31022461 -5.98828125 24.34716797 C-5.43714564 21.68578883 -5.22523727 19.39561872 -5.4375 16.6875 C-5.9325 16.23375 -6.4275 15.78 -6.9375 15.3125 C-8.4375 13.6875 -8.4375 13.6875 -8.9375 10.375 C-8.14347181 4.51904211 -5.94643433 1.18928687 0 0 Z M10.5625 19.6875 C8.01579054 29.31801779 5.84978239 38.79575108 4.5625 48.6875 C11.51473109 45.21138445 18.56418771 40.13158568 21.5625 32.6875 C22.11972602 27.66688072 22.11972602 27.66688072 19.8125 23.375 C16.5801339 20.95072542 14.65306536 19.6875 10.5625 19.6875 Z " fill="#020A3E" transform="translate(360.4375,133.3125)"/>
<path d="M0 0 C12.50594891 1.96214026 23.30995045 7.40682482 31.265625 17.35546875 C35.36868548 23.96902716 36.13559754 29.40713183 34.453125 37.04296875 C30.23597851 47.34485518 19.30282162 56.12125627 9.765625 61.23046875 C4.4004907 62.9549762 0.37333544 63.40932397 -4.859375 60.79296875 C-11.72192054 54.97472362 -11.72192054 54.97472362 -13.734375 51.35546875 C-13.97364398 47.9808101 -13.18074402 45.0359996 -12.296875 41.79296875 C-12.0918335 40.91833984 -11.88679199 40.04371094 -11.67553711 39.14257812 C-11.06124181 36.53748893 -10.40365616 33.94690512 -9.734375 31.35546875 C-9.0662712 28.69298165 -8.42504358 26.02798953 -7.796875 23.35546875 C-7.51972656 22.28296875 -7.24257813 21.21046875 -6.95703125 20.10546875 C-6.44661491 17.31530185 -6.44661491 17.31530185 -8.140625 15.2265625 C-8.6665625 14.60910156 -9.1925 13.99164063 -9.734375 13.35546875 C-10.24409345 8.76800273 -10.29313222 6.47298319 -8.234375 2.35546875 C-5.39375397 0.08297193 -3.60860414 -0.24725621 0 0 Z M8.265625 19.35546875 C7.39895787 23.45709906 6.54944226 27.56209535 5.703125 31.66796875 C5.45626953 32.83521484 5.20941406 34.00246094 4.95507812 35.20507812 C4.72626953 36.32333984 4.49746094 37.44160156 4.26171875 38.59375 C4.04700928 39.62540283 3.8322998 40.65705566 3.61108398 41.7199707 C3.05703499 44.45777128 3.05703499 44.45777128 4.265625 47.35546875 C11.11474815 44.00079619 16.07493735 39.45110219 19.703125 32.66796875 C20.60224567 29.04006795 20.60224567 29.04006795 20.265625 25.35546875 C16.26351462 21.16278169 14.00978998 20.22570828 8.265625 19.35546875 Z " fill="#010336" transform="translate(494.734375,133.64453125)"/>
<path d="M0 0 C7.05201243 1.13917124 13.06001823 4.86983498 17.3515625 10.5390625 C21.73360587 17.44366374 22.20584421 23.40960403 20.5390625 31.41015625 C19.52457466 34.6126476 18.13166923 37.4572988 16.5390625 40.41015625 C16.04277344 41.38210937 15.54648438 42.3540625 15.03515625 43.35546875 C10.72063343 51.34384278 5.23202987 58.8691985 -3.4609375 62.41015625 C-7.93626941 63.28358027 -11.84318437 63.24965275 -15.9375 61.125 C-20.77383975 57.57457667 -25.48758539 53.21121648 -27.4609375 47.41015625 C-27.93091885 40.94265165 -26.75513646 35.23524092 -25.2109375 28.97265625 C-24.90349609 27.63750977 -24.90349609 27.63750977 -24.58984375 26.27539062 C-23.15423881 20.31980526 -21.14338385 14.91556605 -18.4609375 9.41015625 C-16.1509375 9.41015625 -13.8409375 9.41015625 -11.4609375 9.41015625 C-11.1928125 8.48203125 -10.9246875 7.55390625 -10.6484375 6.59765625 C-8.46587253 0.7391924 -5.98170304 -0.22407031 0 0 Z M-4.4609375 17.41015625 C-5.44435365 20.13785791 -6.42278803 22.8671773 -7.3984375 25.59765625 C-7.81512695 26.75104492 -7.81512695 26.75104492 -8.24023438 27.92773438 C-10.19836517 33.42465576 -11.61128776 38.3366887 -11.5234375 44.22265625 C-11.51441406 45.01285156 -11.50539062 45.80304688 -11.49609375 46.6171875 C-11.48449219 47.20886719 -11.47289062 47.80054688 -11.4609375 48.41015625 C-1.69325895 43.52631697 2.76030804 36.55794039 6.5390625 26.41015625 C7.3839082 22.97229962 7.3839082 22.97229962 7.5390625 20.41015625 C6.4871875 19.91515625 5.4353125 19.42015625 4.3515625 18.91015625 C3.75988281 18.63171875 3.16820312 18.35328125 2.55859375 18.06640625 C0.14085968 17.28075959 -1.93466314 17.30544021 -4.4609375 17.41015625 Z " fill="#010436" transform="translate(202.4609375,133.58984375)"/>
<path d="M0 0 C1.39995496 0.40260143 2.79482862 0.82288382 4.1875 1.25 C5.35345703 1.59804687 5.35345703 1.59804687 6.54296875 1.953125 C9.64676894 3.27557087 11.63090656 4.57469078 14 7 C14.82989636 9.63152591 15.32862772 11.80520107 15.6875 14.5 C15.8572937 15.61181641 15.8572937 15.61181641 16.03051758 16.74609375 C16.38485935 19.16094174 16.69821111 21.57804866 17 24 C17.15662109 25.22589844 17.15662109 25.22589844 17.31640625 26.4765625 C18.73618 37.94258339 19.62347666 49.44393266 19 61 C18 62 18 62 16.14453125 62.0546875 C12.18380967 61.74950627 8.77903467 61.32483089 5.4375 59.0625 C1.8813397 54.59450372 2.55156668 51.60541654 3 46 C-2.445 46.495 -2.445 46.495 -8 47 C-8.6496875 49.3203125 -8.6496875 49.3203125 -9.3125 51.6875 C-11.79645361 59.72046926 -11.79645361 59.72046926 -14 62 C-18.73379429 62.68716369 -20.83038631 62.69679114 -24.9375 60.25 C-27.06847392 57.92530118 -27.58677668 57.03632388 -28 54 C-26.92446653 51.07808328 -25.76879605 48.36645133 -24.4375 45.5625 C-24.04272461 44.71228271 -23.64794922 43.86206543 -23.24121094 42.98608398 C-22.34718095 41.07115014 -21.44650715 39.15930926 -20.54052734 37.25 C-19.44468247 34.93813201 -18.35606348 32.62383455 -17.27587891 30.3046875 C-15.75252838 27.03491178 -14.21648059 23.77137385 -12.67166138 20.51168823 C-12.06081153 19.21982403 -11.45308407 17.92647846 -10.84860229 16.63162231 C-9.98774625 14.79215819 -9.11289588 12.95998698 -8.234375 11.12890625 C-7.73131836 10.06744385 -7.22826172 9.00598145 -6.70996094 7.91235352 C-4.84482308 4.73570739 -2.70013256 2.48755306 0 0 Z M0 25 C0.33 26.98 0.66 28.96 1 31 C1.66 30.67 2.32 30.34 3 30 C3 28.35 3 26.7 3 25 C2.01 25 1.02 25 0 25 Z M-1 28 C0 30 0 30 0 30 Z " fill="#020A3E" transform="translate(110,134)"/>
<path d="M0 0 C4.6010319 1.69591754 7.84775762 4.27541403 10.4375 8.4375 C12.41691336 12.95056247 13.65117661 15.95344494 12.125 20.75 C9.00863928 24.04967605 5.45458769 24.67574925 1 25 C-0.32 24.67 -1.64 24.34 -3 24 C-3.66 21.03 -4.32 18.06 -5 15 C-8.10664845 15.67600185 -8.10664845 15.67600185 -9.24609375 18.0546875 C-13.21007517 27.4382763 -15.13122862 37.01929921 -17 47 C-9.64502086 44.70773804 -9.64502086 44.70773804 -3.1875 40.6875 C-1 39 -1 39 2.0625 38.9375 C5.75033077 40.27139624 6.9623373 41.67936449 9 45 C9.9375 47.5 9.9375 47.5 10 50 C7.95632483 54.35060342 5.73707528 56.08590241 1.5 58.25 C0.5409375 58.75015625 -0.418125 59.2503125 -1.40625 59.765625 C-7.18704304 62.5167253 -12.68693885 62.84120739 -19 62 C-24.48352588 59.41055722 -28.46413136 54.82163906 -32 50 C-35.72371145 38.82886566 -30.29641792 24.20742224 -25.6171875 13.9765625 C-19.85032833 3.48276959 -11.91583822 -1.39902554 0 0 Z " fill="#010639" transform="translate(257,134)"/>
<path d="M0 0 C2.40805353 2.32205162 2.95745942 3.65967533 3.375 7 C2.94387484 10.44900126 2.50825932 11.61893436 0 14 C-3.35546875 14.390625 -3.35546875 14.390625 -7.1875 14.25 C-9.09595703 14.19585937 -9.09595703 14.19585937 -11.04296875 14.140625 C-12.01878906 14.09421875 -12.99460937 14.0478125 -14 14 C-14.14099121 15.00788574 -14.28198242 16.01577148 -14.42724609 17.05419922 C-14.95734625 20.83798218 -15.49130938 24.62121206 -16.02636719 28.40429688 C-16.2562422 30.03338309 -16.48510661 31.66261228 -16.71289062 33.29199219 C-20.19646041 58.19646041 -20.19646041 58.19646041 -23 61 C-27.98193985 61 -30.88403921 58.95873195 -34.6796875 56.05859375 C-38.75559557 49.70355366 -34.88613668 39.01717356 -33.5625 32.1875 C-33.33240234 30.96095703 -33.10230469 29.73441406 -32.86523438 28.47070312 C-31.16003667 19.48011001 -31.16003667 19.48011001 -30 16 C-30.81984375 16.04640625 -31.6396875 16.0928125 -32.484375 16.140625 C-34.10085938 16.19476563 -34.10085938 16.19476563 -35.75 16.25 C-37.35101563 16.31960937 -37.35101563 16.31960937 -38.984375 16.390625 C-42 16 -42 16 -44.35546875 14.203125 C-46 12 -46 12 -46.5625 8.5 C-46 5 -46 5 -44.25390625 2.82421875 C-39.1743478 -0.02350489 -34.10564825 0.36073778 -28.375 0.3125 C-26.11192451 0.2697271 -23.84889966 0.22417986 -21.5859375 0.17578125 C-19.93416504 0.14605225 -19.93416504 0.14605225 -18.24902344 0.11572266 C-14.24823724 -0.02677604 -10.30066515 -0.41704673 -6.32666016 -0.88989258 C-3.94647881 -1.00253285 -2.24237588 -0.78583397 0 0 Z " fill="#01083C" transform="translate(480,135)"/>
<path d="M0 0 C3.76691814 0.91876052 6.81664994 2.30019704 9.9375 4.5625 C10.54464844 4.99691406 11.15179688 5.43132812 11.77734375 5.87890625 C15.29150713 11.97536222 10.67647108 22.75915463 9 29.125 C6.54548146 38.47352286 6.54548146 38.47352286 5 48 C6.16917969 47.66484375 7.33835937 47.3296875 8.54296875 46.984375 C10.0908006 46.57161984 11.63899773 46.16023282 13.1875 45.75 C14.34088867 45.41355469 14.34088867 45.41355469 15.51757812 45.0703125 C21.26801379 43.58951362 21.26801379 43.58951362 24.98828125 45.67578125 C27.70074524 48.80959887 28 50.88616739 28 55 C27.25 57.8125 27.25 57.8125 25 60 C18.73506081 62.28682191 11.79127459 62.22864608 5.1875 62.375 C4.47062012 62.40118408 3.75374023 62.42736816 3.01513672 62.4543457 C-2.16587138 62.47063059 -5.04323747 61.29248853 -9 58 C-10.87096475 55.92327558 -11.93080996 54.69559269 -12.21044922 51.88427734 C-11.20748668 43.22740241 -9.47982274 34.72845743 -7.67138672 26.20947266 C-7.12224368 23.61196228 -6.58997847 21.01135045 -6.05859375 18.41015625 C-5.70934532 16.74457915 -5.35911964 15.07920659 -5.0078125 13.4140625 C-4.85144318 12.64317291 -4.69507385 11.87228333 -4.53396606 11.07803345 C-3.62205786 6.85979141 -2.5080593 3.60216119 0 0 Z " fill="#010437" transform="translate(410,134)"/>
<path d="M0 0 C5.21423975 1.36563422 8.20216442 3.29048618 12 7 C13.60641922 11.33648903 12.2359233 15.16270139 11.12890625 19.484375 C10.9277269 20.29996887 10.72654755 21.11556274 10.51927185 21.95587158 C9.87573643 24.55617387 9.21930914 27.15302227 8.5625 29.75 C8.12349503 31.51411063 7.68533385 33.27843148 7.24804688 35.04296875 C6.17513459 39.36447789 5.09065026 43.68293496 4 48 C5.24136719 47.65324219 6.48273438 47.30648437 7.76171875 46.94921875 C9.40325174 46.52711027 11.04520185 46.10662158 12.6875 45.6875 C13.50412109 45.45482422 14.32074219 45.22214844 15.16210938 44.98242188 C17.52051114 44.39998257 19.56928257 43.97256463 22 44 C25.05078125 46.171875 25.05078125 46.171875 27 49 C27.51743865 52.68675037 27.65354484 54.90676139 25.72265625 58.13671875 C21.39365121 62.81911195 13.28322943 62.16727855 7.26733398 62.48925781 C-4.22518433 62.8411055 -4.22518433 62.8411055 -9.125 59 C-11.79876278 56.43318773 -11.99108975 55.1846954 -12.17260742 51.42211914 C-12.10294246 46.80290142 -11.30102232 42.44397312 -10.35546875 37.93359375 C-10.18501541 37.09586929 -10.01456207 36.25814484 -9.83894348 35.39503479 C-9.47876071 33.63536551 -9.11466228 31.87649358 -8.74682617 30.1184082 C-8.1888139 27.44379766 -7.64730892 24.7662116 -7.10742188 22.08789062 C-6.75358874 20.36958863 -6.39880288 18.65148249 -6.04296875 16.93359375 C-5.88346237 16.14174179 -5.72395599 15.34988983 -5.55961609 14.53404236 C-3.14528959 3.14528959 -3.14528959 3.14528959 0 0 Z " fill="#020E43" transform="translate(146,134)"/>
<path d="M0 0 C5.53629802 1.19410349 8.16788137 2.60433451 12 7 C12.33 7.33 12.66 7.66 13 8 C12.49453112 14.78967654 11.15281445 21.25183978 9.625 27.875 C7.7266967 36.2601935 6.13842668 44.61384877 5.07666016 53.14794922 C4.33893424 58.52824018 4.33893424 58.52824018 2.5546875 61.01171875 C1 62 1 62 -1.25 62.0625 C-5.18159236 60.54347568 -8.72409661 58.62045727 -11 55 C-11.65423093 48.67289829 -10.58275294 42.51489434 -9.35546875 36.328125 C-9.09978874 34.99995758 -9.09978874 34.99995758 -8.83894348 33.6449585 C-8.47909958 31.78869192 -8.1150037 29.93324493 -7.74682617 28.07861328 C-7.18676299 25.24627281 -6.64632937 22.4106514 -6.10742188 19.57421875 C-5.75377667 17.76279153 -5.39899819 15.95158512 -5.04296875 14.140625 C-4.88346237 13.29783997 -4.72395599 12.45505493 -4.55961609 11.58673096 C-3.66720378 7.17083111 -2.66171509 3.74089116 0 0 Z " fill="#020A3F" transform="translate(335,134)"/>
<path d="M0 0 C12.50594891 1.96214026 23.30995045 7.40682482 31.265625 17.35546875 C35.36868548 23.96902716 36.13559754 29.40713183 34.453125 37.04296875 C31.86475147 43.45708463 26.2251813 48.68721169 21.265625 53.35546875 C20.275625 53.68546875 19.285625 54.01546875 18.265625 54.35546875 C18.265625 53.36546875 18.265625 52.37546875 18.265625 51.35546875 C18.925625 51.35546875 19.585625 51.35546875 20.265625 51.35546875 C20.513125 50.73671875 20.760625 50.11796875 21.015625 49.48046875 C22.47191139 47.00478188 23.64375006 46.40421873 26.265625 45.35546875 C26.265625 44.03546875 26.265625 42.71546875 26.265625 41.35546875 C26.925625 41.35546875 27.585625 41.35546875 28.265625 41.35546875 C30.63072622 35.40048176 32.27731464 29.80174759 31.265625 23.35546875 C29.88635727 21.01285267 29.88635727 21.01285267 28.265625 19.35546875 C28.265625 18.36546875 28.265625 17.37546875 28.265625 16.35546875 C26.945625 16.02546875 25.625625 15.69546875 24.265625 15.35546875 C24.265625 16.34546875 24.265625 17.33546875 24.265625 18.35546875 C23.275625 18.35546875 22.285625 18.35546875 21.265625 18.35546875 C21.265625 20.33546875 21.265625 22.31546875 21.265625 24.35546875 C17.25675532 24.35546875 15.54689136 22.5653012 12.265625 20.35546875 C10.15066883 19.71805342 10.15066883 19.71805342 8.265625 19.35546875 C8.13285156 20.64324219 8.00007813 21.93101562 7.86328125 23.2578125 C7.31662978 28.17767573 6.5421057 33.04064078 5.703125 37.91796875 C5.56455078 38.73587891 5.42597656 39.55378906 5.28320312 40.39648438 C4.9462751 42.3831979 4.60627916 44.36939074 4.265625 46.35546875 C5.750625 46.85046875 5.750625 46.85046875 7.265625 47.35546875 C3.515625 50.35546875 3.515625 50.35546875 1.265625 50.35546875 C1.40620976 47.89673107 1.55285499 45.438617 1.703125 42.98046875 C1.74244141 42.28179687 1.78175781 41.583125 1.82226562 40.86328125 C2.15234375 35.58203125 2.15234375 35.58203125 3.265625 33.35546875 C3.4078238 29.51610107 3.44317176 26.03530236 2.265625 22.35546875 C1.481875 22.85046875 0.698125 23.34546875 -0.109375 23.85546875 C-2.734375 25.35546875 -2.734375 25.35546875 -4.734375 25.35546875 C-5.023125 26.57234375 -5.311875 27.78921875 -5.609375 29.04296875 C-6.20660761 31.45731333 -6.84151346 33.61386151 -7.796875 35.91796875 C-8.98795121 39.0147669 -9.29314656 42.07777177 -9.734375 45.35546875 C-10.229375 45.85046875 -10.229375 45.85046875 -10.734375 46.35546875 C-11.10198231 48.68364839 -11.43679081 51.01730725 -11.734375 53.35546875 C-13.58360337 50.6758306 -13.75605274 49.50710642 -13.28710938 46.22680664 C-12.97064453 45.0227417 -12.65417969 43.81867676 -12.328125 42.578125 C-12.08370667 41.60558022 -12.08370667 41.60558022 -11.83435059 40.61338806 C-11.13888973 37.84670946 -10.41120811 35.08882054 -9.68408203 32.33032227 C-9.15707845 30.31173163 -8.6484168 28.28911882 -8.140625 26.265625 C-7.66592773 24.45783569 -7.66592773 24.45783569 -7.18164062 22.61352539 C-6.69577195 19.07426911 -7.05747713 17.46121741 -8.734375 14.35546875 C-9.064375 14.02546875 -9.394375 13.69546875 -9.734375 13.35546875 C-10.10621877 8.89334356 -10.2447653 6.37624934 -8.234375 2.35546875 C-5.39375397 0.08297193 -3.60860414 -0.24725621 0 0 Z " fill="#020D41" transform="translate(494.734375,133.64453125)"/>
<path d="M0 0 C0.99 0 1.98 0 3 0 C3 0.99 3 1.98 3 3 C3.66 2.01 4.32 1.02 5 0 C9.92307692 5.16923077 9.92307692 5.16923077 10.3125 9.375 C10.209375 10.24125 10.10625 11.1075 10 12 C9.34 12 8.68 12 8 12 C8 12.96421875 8 13.9284375 8 14.921875 C8 19.94791667 8 24.97395833 8 30 C7.01 30.33 6.02 30.66 5 31 C5 32.32 5 33.64 5 35 C9.95 34.67 14.9 34.34 20 34 C19.67 36.31 19.34 38.62 19 41 C18.67 41 18.34 41 18 41 C17.505 38.525 17.505 38.525 17 36 C13.37 36 9.74 36 6 36 C5.80664062 37.42054688 5.61328125 38.84109375 5.4140625 40.3046875 C5.15148007 42.16152038 4.88843527 44.01828792 4.625 45.875 C4.43550781 47.28072266 4.43550781 47.28072266 4.2421875 48.71484375 C4.11328125 49.61074219 3.984375 50.50664062 3.8515625 51.4296875 C3.73635254 52.25710449 3.62114258 53.08452148 3.50244141 53.93701172 C3 56 3 56 1 58 C-3.94132864 58 -6.87616895 55.9883071 -10.6796875 53.15625 C-14.43297838 47.02661518 -11.42432411 37.99612756 -10 31.4375 C-9.80921875 30.52419922 -9.6184375 29.61089844 -9.421875 28.66992188 C-8.95588071 26.44479913 -8.48183025 24.22173724 -8 22 C-7.34 22 -6.68 22 -6 22 C-5.814375 20.14375 -5.814375 20.14375 -5.625 18.25 C-5.23197906 15.04407205 -4.48077486 12.8690013 -3 10 C-2.835 8.824375 -2.67 7.64875 -2.5 6.4375 C-2 3 -2 3 0 0 Z " fill="#01073A" transform="translate(283,138)"/>
<path d="M0 0 C2.8125 1.5 2.8125 1.5 5 3 C4.34 5.97 3.68 8.94 3 12 C4.32 11.67 5.64 11.34 7 11 C5.90523377 21.76520128 4.24613214 32.41450493 2 43 C0.02 43.495 0.02 43.495 -2 44 C-2.33 43.34 -2.66 42.68 -3 42 C-5.31 42 -7.62 42 -10 42 C-10.17791204 37.46324303 -10.0461125 34.092225 -8 30 C-7.67 29.67 -7.34 29.34 -7 29 C-6.74255836 27.0048273 -6.48800166 25.00887323 -6.28125 23.0078125 C-6 21 -6 21 -5 18 C-4.96125079 16.33378384 -4.9549714 14.66605828 -5 13 C-5.804375 13.020625 -6.60875 13.04125 -7.4375 13.0625 C-10 13 -10 13 -11 12 C-11.46482213 5.84110672 -11.46482213 5.84110672 -9.6875 2.625 C-6.79915485 -0.1563694 -3.84152294 -0.36585933 0 0 Z " fill="#02083C" transform="translate(363,135)"/>
<path d="M0 0 C6.01717366 3.3727547 8.62437533 7.66067817 10.59765625 14.23828125 C10.6794384 18.00025997 10.2593247 19.36122054 7.66015625 22.11328125 C2.98193257 23.8996729 -0.45761175 24.33383925 -5.33984375 23.11328125 C-5.99984375 20.14328125 -6.65984375 17.17328125 -7.33984375 14.11328125 C-8.65984375 14.44328125 -9.97984375 14.77328125 -11.33984375 15.11328125 C-12.81059621 10.70102388 -13.70868733 7.63046506 -12.33984375 3.11328125 C-13.98984375 3.44328125 -15.63984375 3.77328125 -17.33984375 4.11328125 C-17.66984375 5.10328125 -17.99984375 6.09328125 -18.33984375 7.11328125 C-19.32984375 7.11328125 -20.31984375 7.11328125 -21.33984375 7.11328125 C-22.32984375 7.60828125 -22.32984375 7.60828125 -23.33984375 8.11328125 C-19.38705355 -1.09023026 -8.90244376 -3.37371408 0 0 Z " fill="#01063A" transform="translate(259.33984375,134.88671875)"/>
<path d="M0 0 C1.75 0.0625 1.75 0.0625 4 1 C7.37626766 5.50169021 8.63868773 9.01760131 8.40625 14.64453125 C7.6973684 18.75468129 5.93986375 22.33677515 4 26 C3.34 26 2.68 26 2 26 C2 27.32 2 28.64 2 30 C-0.8125 32.8125 -0.8125 32.8125 -4 35 C-4.99 34.67 -5.98 34.34 -7 34 C-7.6875 31.9375 -7.6875 31.9375 -8 30 C-7.01 29.34 -6.02 28.68 -5 28 C-4.45897058 26.06830219 -4.45897058 26.06830219 -4.375 23.9375 C-4 20 -4 20 -3 19 C-2.76807135 17.48530552 -2.58784762 15.96245438 -2.4375 14.4375 C-2.35371094 13.61121094 -2.26992188 12.78492188 -2.18359375 11.93359375 C-2.12300781 11.29550781 -2.06242188 10.65742188 -2 10 C-2.66 9.67 -3.32 9.34 -4 9 C-3.67 7.02 -3.34 5.04 -3 3 C-2.01 3 -1.02 3 0 3 C0 2.01 0 1.02 0 0 Z " fill="#010131" transform="translate(519,149)"/>
<path d="M0 0 C1.15628906 -0.02126953 1.15628906 -0.02126953 2.3359375 -0.04296875 C4.84334888 0.20948393 6.45761902 0.93556533 8.625 2.1875 C8.9925 8.5575 8.9925 8.5575 7.3671875 11.34375 C3.76912157 15.15156865 -1.58550307 15.09086757 -6.60205078 15.26464844 C-11.86167383 15.35120053 -17.11604163 15.29061683 -22.375 15.1875 C-22.705 14.5275 -23.035 13.8675 -23.375 13.1875 C-17.105 12.8575 -10.835 12.5275 -4.375 12.1875 C-5.035 11.8575 -5.695 11.5275 -6.375 11.1875 C-6.375 7.8875 -6.375 4.5875 -6.375 1.1875 C-4.04904054 0.02452027 -2.58776769 0.02149309 0 0 Z " fill="#010335" transform="translate(164.375,180.8125)"/>
<path d="M0 0 C2.40805353 2.32205162 2.95745942 3.65967533 3.375 7 C2.94387484 10.44900126 2.50825932 11.61893436 0 14 C-3.35546875 14.390625 -3.35546875 14.390625 -7.1875 14.25 C-9.09595703 14.19585937 -9.09595703 14.19585937 -11.04296875 14.140625 C-12.50669922 14.07101563 -12.50669922 14.07101563 -14 14 C-14.14622803 15.03406982 -14.29245605 16.06813965 -14.44311523 17.13354492 C-14.98774137 20.98221927 -15.53424166 24.83062559 -16.08129883 28.67895508 C-16.31748491 30.34229434 -16.55316757 32.00570517 -16.78833008 33.66918945 C-17.12708265 36.06480753 -17.46766467 38.46015957 -17.80859375 40.85546875 C-17.91280136 41.5952446 -18.01700897 42.33502045 -18.12437439 43.09721375 C-18.64708056 46.75694633 -19.22720579 50.38431623 -20 54 C-20.33 54 -20.66 54 -21 54 C-21.15600013 48.05843 -20.5892861 42.59423329 -19.5625 36.75 C-18.47074616 30.25260984 -17.60375979 23.83444976 -17.2109375 17.25 C-17 15 -17 15 -16 12 C-12.57767028 10.85922343 -9.91326783 10.90184883 -6.3125 10.9375 C-4.54326172 10.95103516 -4.54326172 10.95103516 -2.73828125 10.96484375 C-1.83464844 10.97644531 -0.93101562 10.98804688 0 11 C0.33 8.36 0.66 5.72 1 3 C-13.52 3 -28.04 3 -43 3 C-40.38324597 0.38324597 -39.15310466 0.71173353 -35.50390625 0.62109375 C-34.38693359 0.58693359 -33.26996094 0.55277344 -32.11914062 0.51757812 C-30.94544922 0.49115234 -29.77175781 0.46472656 -28.5625 0.4375 C-26.27205702 0.37657707 -23.98168806 0.31280099 -21.69140625 0.24609375 C-20.57137207 0.21370605 -19.45133789 0.18131836 -18.29736328 0.14794922 C-14.28235528 -0.03219996 -10.3105592 -0.42381892 -6.32006836 -0.89428711 C-3.9448356 -1.00251354 -2.23801138 -0.78337975 0 0 Z " fill="#0D76BC" transform="translate(480,135)"/>
<path d="M0 0 C5.19822672 1.36144033 8.09543873 3.46730171 12 7 C9 8 9 8 6 7 C4.29749607 8.28725907 2.62935241 9.62131719 1 11 C0.34 11 -0.32 11 -1 11 C-1.12375 11.721875 -1.2475 12.44375 -1.375 13.1875 C-2 16 -2 16 -3 18.3125 C-4.08385932 21.22537192 -4.40142611 23.71972788 -4.625 26.8125 C-4.69976562 27.78832031 -4.77453125 28.76414063 -4.8515625 29.76953125 C-4.90054687 30.50558594 -4.94953125 31.24164063 -5 32 C-5.66 32 -6.32 32 -7 32 C-7.06058594 32.69867188 -7.12117188 33.39734375 -7.18359375 34.1171875 C-7.30927734 35.48230469 -7.30927734 35.48230469 -7.4375 36.875 C-7.51871094 37.77992188 -7.59992188 38.68484375 -7.68359375 39.6171875 C-8 42 -8 42 -9 44 C-9.22858114 46.0374763 -9.41024278 48.08040303 -9.5625 50.125 C-9.64628906 51.22070312 -9.73007812 52.31640625 -9.81640625 53.4453125 C-9.87699219 54.28835937 -9.93757813 55.13140625 -10 56 C-12 54 -12 54 -12.11279297 52.07958984 C-11.25150146 43.33482695 -9.49399176 34.79520332 -7.67138672 26.20947266 C-7.12224368 23.61196228 -6.58997847 21.01135045 -6.05859375 18.41015625 C-5.70934532 16.74457915 -5.35911964 15.07920659 -5.0078125 13.4140625 C-4.85144318 12.64317291 -4.69507385 11.87228333 -4.53396606 11.07803345 C-3.62205786 6.85979141 -2.5080593 3.60216119 0 0 Z " fill="#032760" transform="translate(410,134)"/>
<path d="M0 0 C4.83919876 0.28465875 8.67193019 2.5827058 12 6 C14.15493199 12.21127456 12.20124742 18.71111645 11 25 C14.96 24.67 18.92 24.34 23 24 C23 24.66 23 25.32 23 26 C17.75614911 27.7479503 13.52677733 28.19392201 8 28 C8.33 24.04 8.66 20.08 9 16 C9.66 16 10.32 16 11 16 C9.92289822 11.69159287 8.96052484 8.36423277 6 5 C5.01 5.99 4.02 6.98 3 8 C3.33 6.68 3.66 5.36 4 4 C3.01 4 2.02 4 1 4 C0.87882812 4.75925781 0.75765625 5.51851562 0.6328125 6.30078125 C0.38144531 7.79158203 0.38144531 7.79158203 0.125 9.3125 C-0.03742188 10.29863281 -0.19984375 11.28476563 -0.3671875 12.30078125 C-1 15 -1 15 -3 18 C-3.66158043 20.04584079 -3.66158043 20.04584079 -4.125 22.1875 C-4.41375 23.445625 -4.7025 24.70375 -5 26 C-5.33 26 -5.66 26 -6 26 C-5.25233645 5.25233645 -5.25233645 5.25233645 0 0 Z " fill="#074D8C" transform="translate(282,134)"/>
<path d="M0 0 C1.125 6.75 1.125 6.75 0 9 C2.31 9.33 4.62 9.66 7 10 C7 10.33 7 10.66 7 11 C-0.92 11 -8.84 11 -17 11 C-16.07674651 7.30698604 -15.51056825 5.70368888 -13 3 C-12.01 3 -11.02 3 -10 3 C-10 2.34 -10 1.68 -10 1 C-8.5209084 0.83266843 -7.04172444 0.66615314 -5.5625 0.5 C-4.73878906 0.4071875 -3.91507813 0.314375 -3.06640625 0.21875 C-1 0 -1 0 0 0 Z " fill="#000235" transform="translate(158,183)"/>
<path d="M0 0 C0.33 0 0.66 0 1 0 C1.33 2.31 1.66 4.62 2 7 C2.99 7.33 3.98 7.66 5 8 C5 11.3 5 14.6 5 18 C4.34 18 3.68 18 3 18 C3.03480469 18.56847656 3.06960938 19.13695312 3.10546875 19.72265625 C3.30131287 25.30887674 2.37890077 28.86157434 0 34 C-0.37531446 36.32694964 -0.71917202 38.65976685 -1 41 C-1.495 41.495 -1.495 41.495 -2 42 C-2.36760731 44.32817964 -2.70241581 46.6618385 -3 49 C-4.84922837 46.32036185 -5.02167774 45.15163767 -4.55273438 41.87133789 C-4.23626953 40.66727295 -3.91980469 39.46320801 -3.59375 38.22265625 C-3.34933167 37.25011147 -3.34933167 37.25011147 -3.09997559 36.25791931 C-2.40451473 33.49124071 -1.67683311 30.73335179 -0.94970703 27.97485352 C-0.42270345 25.95626288 0.0859582 23.93365007 0.59375 21.91015625 C1.06844727 20.10236694 1.06844727 20.10236694 1.55273438 18.25805664 C2.03860305 14.71880036 1.67689787 13.10574866 0 10 C-0.33 9.67 -0.66 9.34 -1 9 C-1.1328125 7.1875 -1.1328125 7.1875 -1.125 5 C-1.12886719 3.9171875 -1.12886719 3.9171875 -1.1328125 2.8125 C-1 1 -1 1 0 0 Z " fill="#095B97" transform="translate(486,138)"/>
<path d="M0 0 C0.33 0 0.66 0 1 0 C1.08637312 5.5032016 0.82009077 10.79301871 0.125 16.25 C0.04636719 16.94351563 -0.03226563 17.63703125 -0.11328125 18.3515625 C-0.56485925 21.97808119 -1.23507014 24.81173961 -3 28 C-3.38749213 30.32495277 -3.72982839 32.65851268 -4 35 C-4.66 35 -5.32 35 -6 35 C-5.94680641 41.72611358 -5.94680641 41.72611358 -2.9375 47.4375 C-2.298125 47.953125 -1.65875 48.46875 -1 49 C-1 49.99 -1 50.98 -1 52 C-6.2295082 49.6557377 -6.2295082 49.6557377 -8 47 C-8.31994202 40.96775984 -7.51804872 35.57003171 -6.25 29.6875 C-6.07243164 28.83317383 -5.89486328 27.97884766 -5.71191406 27.09863281 C-5.14871735 24.39746614 -4.57455526 21.6987709 -4 19 C-3.6138534 17.15770493 -3.22842955 15.31525821 -2.84375 13.47265625 C-1.90417969 8.9799745 -0.95477501 4.48947397 0 0 Z " fill="#07589E" transform="translate(142,142)"/>
<path d="M0 0 C2.31 0 4.62 0 7 0 C7.33 0.99 7.66 1.98 8 3 C11.72943822 2.86064456 15.45847096 2.71237699 19.1875 2.5625 C20.24259766 2.52318359 21.29769531 2.48386719 22.38476562 2.44335938 C23.40634766 2.40146484 24.42792969 2.35957031 25.48046875 2.31640625 C26.88655396 2.26141968 26.88655396 2.26141968 28.32104492 2.20532227 C30.95114982 2.00374401 33.42766414 1.57321679 36 1 C35.67 1.99 35.34 2.98 35 4 C28.41896621 5.59195634 21.93837936 6.25788619 15.1875 6.375 C14.47086182 6.40078125 13.75422363 6.4265625 13.01586914 6.453125 C7.86045932 6.47232355 4.95456826 5.25812821 1 2 C0.67 1.34 0.34 0.68 0 0 Z " fill="#0C4C94" transform="translate(400,190)"/>
<path d="M0 0 C0.33 0 0.66 0 1 0 C0.39180004 7.28319458 -1.14100527 14.06608131 -3 21.125 C-5.45451854 30.47352286 -5.45451854 30.47352286 -7 40 C-5.81921875 39.66484375 -4.6384375 39.3296875 -3.421875 38.984375 C-1.86490921 38.57168527 -0.30759875 38.16029431 1.25 37.75 C2.02730469 37.52570313 2.80460937 37.30140625 3.60546875 37.0703125 C5.78997112 36.51018369 7.74412554 36.05267524 10 36 C12.546875 37.890625 12.546875 37.890625 14 40 C13.31292969 39.97679687 12.62585938 39.95359375 11.91796875 39.9296875 C11.01691406 39.91164062 10.11585938 39.89359375 9.1875 39.875 C7.84751953 39.84019531 7.84751953 39.84019531 6.48046875 39.8046875 C3.74597286 39.81714173 3.74597286 39.81714173 1 42 C-2.3 41.67 -5.6 41.34 -9 41 C-8.01 33.74 -7.02 26.48 -6 19 C-5.34 19 -4.68 19 -4 19 C-3.2717552 14.00632136 -2.61512818 9.00890086 -2 4 C-1.34 4 -0.68 4 0 4 C0 2.68 0 1.36 0 0 Z " fill="#1376C2" transform="translate(422,142)"/>
<path d="M0 0 C1.89453125 0.49609375 1.89453125 0.49609375 4 2 C4.77769179 4.76546 5.29534183 7.24099835 5.6875 10.0625 C5.80778564 10.83674316 5.92807129 11.61098633 6.05200195 12.40869141 C6.38688711 14.60356242 6.6971379 16.80051735 7 19 C7.1340625 19.90363281 7.268125 20.80726563 7.40625 21.73828125 C8.16199804 27.47986703 8.09726797 33.21795954 8 39 C7.01 39 6.02 39 5 39 C4.98018066 38.40687012 4.96036133 37.81374023 4.93994141 37.20263672 C5.44251577 17.80715662 5.44251577 17.80715662 0 0 Z " fill="#084588" transform="translate(120,139)"/>
<path d="M0 0 C0.33 0 0.66 0 1 0 C1.144375 1.11375 1.28875 2.2275 1.4375 3.375 C1.78372035 6.82142047 1.78372035 6.82142047 3 9 C6.04581269 9.46954261 6.04581269 9.46954261 9.5625 9.625 C10.76003906 9.69976562 11.95757812 9.77453125 13.19140625 9.8515625 C14.11824219 9.90054688 15.04507812 9.94953125 16 10 C15.88541307 11.43836751 15.75790884 12.87570966 15.625 14.3125 C15.55539062 15.11300781 15.48578125 15.91351563 15.4140625 16.73828125 C15 19 15 19 13 22 C13.495 17.545 13.495 17.545 14 13 C13.18015625 13.04640625 12.3603125 13.0928125 11.515625 13.140625 C10.43796875 13.17671875 9.3603125 13.2128125 8.25 13.25 C6.64898437 13.31960937 6.64898437 13.31960937 5.015625 13.390625 C2 13 2 13 -0.3671875 11.2109375 C-2.68654445 8.07037283 -2.42239537 5.8015583 -2 2 C-1.34 1.34 -0.68 0.68 0 0 Z " fill="#0D5A9E" transform="translate(436,138)"/>
<path d="M0 0 C1.32 0 2.64 0 4 0 C4.38063221 2.3260857 4.71269945 4.66055264 5 7 C4.67 7.33 4.34 7.66 4 8 C3.7746669 10.0279979 3.55232815 12.05674874 3.37890625 14.08984375 C3 16 3 16 1 18 C-1.03438042 22.90644689 -1.55753406 27.76027182 -2 33 C-2.66 33 -3.32 33 -4 33 C-4 34.65 -4 36.3 -4 38 C-4.33 38 -4.66 38 -5 38 C-5.46006839 31.27149976 -3.73956558 25.33960181 -2 18.875 C-1.43200491 16.74885623 -0.86930143 14.62129011 -0.3125 12.4921875 C-0.06113281 11.55745605 0.19023437 10.62272461 0.44921875 9.65966797 C1.1726185 6.16644241 1.62353458 3.24706916 0 0 Z " fill="#054181" transform="translate(354,148)"/>
<path d="M0 0 C0.33 0 0.66 0 1 0 C1.16582254 3.89682973 1.03122533 7.21838336 0.0625 11 C-1.54236351 17.54465617 -1.6642872 24.29457857 -2 31 C-2.66 31 -3.32 31 -4 31 C-4 35.62 -4 40.24 -4 45 C-4.99 45 -5.98 45 -7 45 C-7.14935617 38.83105672 -6.71510037 33.2777852 -5.46875 27.24609375 C-5.31337769 26.45977066 -5.15800537 25.67344757 -4.9979248 24.86329651 C-4.50661037 22.38635569 -4.00353804 19.91198154 -3.5 17.4375 C-3.16197521 15.74429719 -2.82472858 14.05093884 -2.48828125 12.35742188 C-1.66782689 8.2364308 -0.83682922 4.11769575 0 0 Z " fill="#0E67AD" transform="translate(331,144)"/>
<path d="M0 0 C1.37478516 0.01740234 1.37478516 0.01740234 2.77734375 0.03515625 C3.69644531 0.04417969 4.61554688 0.05320313 5.5625 0.0625 C6.27277344 0.07410156 6.98304688 0.08570313 7.71484375 0.09765625 C7.71484375 1.08765625 7.71484375 2.07765625 7.71484375 3.09765625 C7.05484375 3.09765625 6.39484375 3.09765625 5.71484375 3.09765625 C5.38484375 5.07765625 5.05484375 7.05765625 4.71484375 9.09765625 C2.40484375 9.09765625 0.09484375 9.09765625 -2.28515625 9.09765625 C-3.1640625 2.9453125 -3.1640625 2.9453125 -3.28515625 1.09765625 C-2.28515625 0.09765625 -2.28515625 0.09765625 0 0 Z " fill="#010131" transform="translate(440.28515625,138.90234375)"/>
<path d="M0 0 C2.51675702 3.77513553 2.36808778 5.5093291 2 10 C0.14304698 18.42770987 -5.86729177 24.22749601 -12 30 C-12.99 30.33 -13.98 30.66 -15 31 C-15 30.01 -15 29.02 -15 28 C-14.34 28 -13.68 28 -13 28 C-12.7525 27.38125 -12.505 26.7625 -12.25 26.125 C-10.79371361 23.64931313 -9.62187494 23.04874998 -7 22 C-7 20.68 -7 19.36 -7 18 C-5.68 17.67 -4.36 17.34 -3 17 C-3 16.01 -3 15.02 -3 14 C-2.34 13.67 -1.68 13.34 -1 13 C-0.53045739 9.95418731 -0.53045739 9.95418731 -0.375 6.4375 C-0.30023437 5.23996094 -0.22546875 4.04242188 -0.1484375 2.80859375 C-0.09945312 1.88175781 -0.05046875 0.95492187 0 0 Z " fill="#094C8F" transform="translate(528,157)"/>
<path d="M0 0 C1.2700214 3.81006421 0.46800351 5.23541017 -0.8125 9 C-2.74437511 14.95605786 -4.05816896 20.8161357 -5 27 C-3.02 26.67 -1.04 26.34 1 26 C0.67 26.99 0.34 27.98 0 29 C-2.31 29.33 -4.62 29.66 -7 30 C-8.53616498 22.73812918 -7.07979208 17.05014265 -5 10 C-4.34 10 -3.68 10 -3 10 C-3 7.36 -3 4.72 -3 2 C-2.01 2 -1.02 2 0 2 C0 1.34 0 0.68 0 0 Z " fill="#094683" transform="translate(245,154)"/>
<path d="M0 0 C1.51400391 0.01740234 1.51400391 0.01740234 3.05859375 0.03515625 C4.07050781 0.04417969 5.08242187 0.05320313 6.125 0.0625 C7.29869141 0.07990234 7.29869141 0.07990234 8.49609375 0.09765625 C8.53476563 1.14566406 8.53476563 1.14566406 8.57421875 2.21484375 C8.6309375 3.12492188 8.68765625 4.035 8.74609375 4.97265625 C8.7925 5.87757813 8.83890625 6.7825 8.88671875 7.71484375 C9.23967391 10.26395326 9.23967391 10.26395326 11.49609375 11.28515625 C12.15609375 11.55328125 12.81609375 11.82140625 13.49609375 12.09765625 C14.24609375 14.22265625 14.24609375 14.22265625 14.49609375 16.09765625 C17.13609375 16.42765625 19.77609375 16.75765625 22.49609375 17.09765625 C22.49609375 17.42765625 22.49609375 17.75765625 22.49609375 18.09765625 C17.97323442 17.98709747 13.76058592 17.766549 9.93359375 15.16015625 C6.51916581 10.87023397 6.94178209 7.38414705 7.49609375 2.09765625 C5.68283824 2.21117142 3.87046018 2.33878586 2.05859375 2.47265625 C1.04925781 2.54226562 0.03992188 2.611875 -1 2.68359375 C-1.82628906 2.82023438 -2.65257813 2.956875 -3.50390625 3.09765625 C-3.83390625 3.75765625 -4.16390625 4.41765625 -4.50390625 5.09765625 C-3.38261259 0.13192717 -3.38261259 0.13192717 0 0 Z " fill="#0B579E" transform="translate(105.50390625,177.90234375)"/>
<path d="M0 0 C7.83098592 1.95774648 7.83098592 1.95774648 11 5 C11 5.66 11 6.32 11 7 C7.7 7 4.4 7 1 7 C-0.5994614 10.19892281 -1.42595236 12.35462576 -2.125 15.75 C-2.29257812 16.54921875 -2.46015625 17.3484375 -2.6328125 18.171875 C-2.81457031 19.07679688 -2.81457031 19.07679688 -3 20 C-4.10326221 16.69021337 -4.00887201 14.58525591 -3.75 11.125 C-3.68296875 10.09632813 -3.6159375 9.06765625 -3.546875 8.0078125 C-2.95457721 4.75017463 -1.86092505 2.71134779 0 0 Z " fill="#032D68" transform="translate(335,134)"/>
<path d="M0 0 C0.33 0 0.66 0 1 0 C1.31732638 7.77449624 0.11855299 15.32992235 -1 23 C-1.66 23 -2.32 23 -3 23 C-3.06058594 23.69867188 -3.12117188 24.39734375 -3.18359375 25.1171875 C-3.30927734 26.48230469 -3.30927734 26.48230469 -3.4375 27.875 C-3.51871094 28.77992188 -3.59992188 29.68484375 -3.68359375 30.6171875 C-4 33 -4 33 -5 35 C-5.22858114 37.0374763 -5.41024278 39.08040303 -5.5625 41.125 C-5.64628906 42.22070312 -5.73007812 43.31640625 -5.81640625 44.4453125 C-5.87699219 45.28835937 -5.93757813 46.13140625 -6 47 C-8 45 -8 45 -8.10180664 43.02026367 C-7.19749936 33.98327168 -5.32622432 25.1838372 -3.4375 16.3125 C-3.10424806 14.72472883 -2.77156154 13.13683888 -2.43945312 11.54882812 C-1.63280755 7.69781969 -0.81855051 3.84849478 0 0 Z " fill="#0F6CB2" transform="translate(406,143)"/>
<path d="M0 0 C-1.35108361 3.09010211 -2.79017933 4.96910153 -5.375 7.125 C-5.96023437 7.62257812 -6.54546875 8.12015625 -7.1484375 8.6328125 C-12.18307042 12.35036845 -16.84365745 12.87947751 -23 12 C-25.625 10 -25.625 10 -27 8 C-26.26394531 8.0721875 -25.52789062 8.144375 -24.76953125 8.21875 C-23.79371094 8.3115625 -22.81789062 8.404375 -21.8125 8.5 C-20.84957031 8.5928125 -19.88664063 8.685625 -18.89453125 8.78125 C-16.24812333 8.98124844 -13.65239135 9.03879183 -11 9 C-10.690625 8.1646875 -10.690625 8.1646875 -10.375 7.3125 C-8.0152396 3.34381206 -4.80798205 0 0 0 Z " fill="#074483" transform="translate(212,184)"/>
<path d="M0 0 C0.33 0 0.66 0 1 0 C0.5208648 7.20354987 -0.38111751 14.35225892 -1.375 21.5 C-1.5457605 22.82692871 -1.5457605 22.82692871 -1.7199707 24.18066406 C-1.90112427 25.4370166 -1.90112427 25.4370166 -2.0859375 26.71875 C-2.1895459 27.47091797 -2.2931543 28.22308594 -2.39990234 28.99804688 C-3.12514902 31.41750284 -4.00473528 32.47202323 -6 34 C-9.01071639 33.84946418 -10.52068815 33.41319987 -12.8125 31.4375 C-13.204375 30.963125 -13.59625 30.48875 -14 30 C-11.36 30.33 -8.72 30.66 -6 31 C-5.67 28.69 -5.34 26.38 -5 24 C-4.34 24 -3.68 24 -3 24 C-2.970271 23.12263184 -2.970271 23.12263184 -2.93994141 22.22753906 C-2.84446519 19.56791975 -2.73487858 16.90906162 -2.625 14.25 C-2.5940625 13.32960937 -2.563125 12.40921875 -2.53125 11.4609375 C-2.47324219 10.12675781 -2.47324219 10.12675781 -2.4140625 8.765625 C-2.3826416 7.94868164 -2.3512207 7.13173828 -2.31884766 6.29003906 C-1.97656307 3.83167042 -1.2260723 2.14240001 0 0 Z " fill="#148FD7" transform="translate(318,162)"/>
<path d="M0 0 C0.33 0 0.66 0 1 0 C1.3675 6.37 1.3675 6.37 -0.2578125 9.15625 C-3.85587843 12.96406865 -9.21050307 12.90336757 -14.22705078 13.07714844 C-19.48667383 13.16370053 -24.74104163 13.10311683 -30 13 C-30.33 12.34 -30.66 11.68 -31 11 C-23.08 10.67 -15.16 10.34 -7 10 C-6.67 9.34 -6.34 8.68 -6 8 C-4.35 8 -2.7 8 -1 8 C-0.67 5.36 -0.34 2.72 0 0 Z " fill="#1065A9" transform="translate(172,183)"/>
<path d="M0 0 C2.95649468 4.91603185 2.01692166 9.55167521 1 15 C-1.18274203 21.85358379 -5.20539753 27.94128472 -9 34 C-9.93423645 30.98968256 -10.04449911 30.13349732 -9 27 C-8.01 27 -7.02 27 -6 27 C-5.9175 26.34 -5.835 25.68 -5.75 25 C-5 22 -5 22 -3 18.5625 C0.06032665 12.80775533 -0.17931163 6.38349389 0 0 Z " fill="#0A5A9F" transform="translate(222,150)"/>
<path d="M0 0 C0.33 0 0.66 0 1 0 C1 5.94 1 11.88 1 18 C-1.31 18 -3.62 18 -6 18 C-4.83805848 11.53287812 -2.8751252 5.90377651 0 0 Z M-3 10 C-2.67 11.98 -2.34 13.96 -2 16 C-1.34 15.67 -0.68 15.34 0 15 C0 13.35 0 11.7 0 10 C-0.99 10 -1.98 10 -3 10 Z M-4 13 C-3 15 -3 15 -3 15 Z " fill="#109CD9" transform="translate(113,149)"/>
<path d="M0 0 C0.33 0 0.66 0 1 0 C1.042721 1.66611905 1.04063832 3.33382885 1 5 C0 6 0 6 -3.5625 6.0625 C-4.696875 6.041875 -5.83125 6.02125 -7 6 C-6.9484375 6.71542969 -6.896875 7.43085938 -6.84375 8.16796875 C-7.02602747 11.47174781 -7.95027242 13.40676078 -9.5 16.3125 C-9.9640625 17.19550781 -10.428125 18.07851562 -10.90625 18.98828125 C-11.44765625 19.98408203 -11.44765625 19.98408203 -12 21 C-13.47551172 17.14312442 -12.46711142 14.61206371 -11.125 10.8125 C-10.57199219 9.21341797 -10.57199219 9.21341797 -10.0078125 7.58203125 C-9 5 -9 5 -8 4 C-5.66702567 3.95907063 -3.33294775 3.95758277 -1 4 C-0.67 2.68 -0.34 1.36 0 0 Z " fill="#033B7B" transform="translate(192,139)"/>
<path d="M0 0 C5.71664378 0.04580644 10.3606747 2.21971081 15.0625 5.375 C16.0525 6.86 16.0525 6.86 17.0625 8.375 C11.52607616 7.74586093 11.52607616 7.74586093 9.1875 5.875 C6.06506086 3.67092531 2.79726055 3.34638115 -0.9375 3.375 C-4.3190339 4.19343032 -4.3190339 4.19343032 -6.9375 5.375 C-4.54619565 0.43297101 -4.54619565 0.43297101 0 0 Z " fill="#08478E" transform="translate(199.9375,133.625)"/>
<path d="M0 0 C2.99656072 1.28356617 5.62291518 2.75232667 8 5 C8 5.66 8 6.32 8 7 C6.68 6.67 5.36 6.34 4 6 C4 5.34 4 4.68 4 4 C3.01 4 2.02 4 1 4 C1 3.34 1 2.68 1 2 C-0.58246707 1.91846067 -2.16616273 1.86056443 -3.75 1.8125 C-5.07257813 1.76029297 -5.07257813 1.76029297 -6.421875 1.70703125 C-9.46563543 2.05291312 -10.67939489 3.07793359 -13 5 C-13.66 5 -14.32 5 -15 5 C-15.33 5.99 -15.66 6.98 -16 8 C-16.99 8 -17.98 8 -19 8 C-19.99 8.495 -19.99 8.495 -21 9 C-17.30602402 0.39910071 -8.63569649 -1.59966592 0 0 Z " fill="#0C69A8" transform="translate(257,134)"/>
<path d="M0 0 C0.33 0 0.66 0 1 0 C0.59314111 9.35775436 -0.60438853 17.92982326 -3 27 C-5.375 27.625 -5.375 27.625 -8 28 C-8.66 27.34 -9.32 26.68 -10 26 C-8.35 26 -6.7 26 -5 26 C-4.95101563 25.24074219 -4.90203125 24.48148438 -4.8515625 23.69921875 C-4.73941406 22.20841797 -4.73941406 22.20841797 -4.625 20.6875 C-4.55539062 19.70136719 -4.48578125 18.71523437 -4.4140625 17.69921875 C-4 15 -4 15 -2 12 C-1.55570562 9.95130926 -1.18705805 7.88545707 -0.875 5.8125 C-0.70742188 4.72582031 -0.53984375 3.63914063 -0.3671875 2.51953125 C-0.24601562 1.68808594 -0.12484375 0.85664063 0 0 Z " fill="#0A5BA7" transform="translate(341,168)"/>
<path d="M0 0 C2.9711811 0.9903937 4.56575873 2.09824901 7 4 C7.99 4.66 8.98 5.32 10 6 C10 6.66 10 7.32 10 8 C15.36090593 8.53673893 15.36090593 8.53673893 20 6.5 C20.33 6.005 20.66 5.51 21 5 C22.32 5.66 23.64 6.32 25 7 C20.006111 10.07316246 15.73559429 10.937054 10 10 C6.06279283 7.91996602 2.91795213 5.36686784 0 2 C0 1.34 0 0.68 0 0 Z " fill="#074F92" transform="translate(350,186)"/>
<path d="M0 0 C1.24193748 3.72581245 0.54831788 4.79216534 -0.875 8.375 C-2.85830361 13.40953994 -4.1546357 17.87649378 -4.0625 23.3125 C-4.041875 24.529375 -4.02125 25.74625 -4 27 C-3.34 27 -2.68 27 -2 27 C-2 27.66 -2 28.32 -2 29 C-3.32 29 -4.64 29 -6 29 C-6 24.38 -6 19.76 -6 15 C-6.99 15.495 -6.99 15.495 -8 16 C-7.45276317 12.62537285 -6.9451 10.91765 -5 8 C-4.67 7.34 -4.34 6.68 -4 6 C-3.34 6 -2.68 6 -2 6 C-1.34 4.02 -0.68 2.04 0 0 Z " fill="#0D5EA2" transform="translate(196,154)"/>
<path d="M0 0 C0.99 0.66 1.98 1.32 3 2 C2.67 2.66 2.34 3.32 2 4 C1.34 4 0.68 4 0 4 C0.33 4.99 0.66 5.98 1 7 C0.34 7 -0.32 7 -1 7 C-1.33 8.32 -1.66 9.64 -2 11 C-3.32 11.33 -4.64 11.66 -6 12 C-6 9.03 -6 6.06 -6 3 C-4.02 2.01 -2.04 1.02 0 0 Z " fill="#02033C" transform="translate(199,136)"/>
<path d="M0 0 C3.68783077 1.33389624 4.8998373 2.74186449 6.9375 6.0625 C7.97298655 9.09499633 8.20894529 10.39293496 7 13.375 C6.649375 13.931875 6.29875 14.48875 5.9375 15.0625 C5.6075 15.0625 5.2775 15.0625 4.9375 15.0625 C4.86273438 14.37542969 4.78796875 13.68835938 4.7109375 12.98046875 C4.30773101 10.21731839 3.85571745 7.70237517 2.9375 5.0625 C0.00087328 2.83924321 0.00087328 2.83924321 -3.0625 2.0625 C-3.3925 3.0525 -3.7225 4.0425 -4.0625 5.0625 C-5.3825 4.7325 -6.7025 4.4025 -8.0625 4.0625 C-5.30371137 1.38485221 -3.91885909 0.07997672 0 0 Z " fill="#09549E" transform="translate(259.0625,172.9375)"/>
<path d="M0 0 C1.98 0.66 3.96 1.32 6 2 C6 2.33 6 2.66 6 3 C5.030625 3.12375 4.06125 3.2475 3.0625 3.375 C2.051875 3.58125 1.04125 3.7875 0 4 C-1.2419025 6.48380499 -1.21445814 8.41624169 -1.375 11.1875 C-1.76875864 16.09334538 -2.76989159 19.63674441 -5 24 C-5.33 24 -5.66 24 -6 24 C-4.76595745 4.76595745 -4.76595745 4.76595745 0 0 Z " fill="#0A4E98" transform="translate(311,134)"/>
<path d="M0 0 C-0.33 2.31 -0.66 4.62 -1 7 C-1.33 7 -1.66 7 -2 7 C-2.33 5.35 -2.66 3.7 -3 2 C-6.63 2 -10.26 2 -14 2 C-14.19335938 3.43214844 -14.38671875 4.86429688 -14.5859375 6.33984375 C-14.84848355 8.20579603 -15.11153022 10.07167792 -15.375 11.9375 C-15.56449219 13.35579102 -15.56449219 13.35579102 -15.7578125 14.80273438 C-15.88671875 15.70185547 -16.015625 16.60097656 -16.1484375 17.52734375 C-16.26364746 18.35999756 -16.37885742 19.19265137 -16.49755859 20.05053711 C-16.66336426 20.69385986 -16.82916992 21.33718262 -17 22 C-17.66 22.33 -18.32 22.66 -19 23 C-19.042721 21.33388095 -19.04063832 19.66617115 -19 18 C-18.67 17.67 -18.34 17.34 -18 17 C-17.62607155 14.49935351 -17.29475984 12.01006422 -17 9.5 C-16.13513514 2.13513514 -16.13513514 2.13513514 -15 1 C-9.93755771 0.21444861 -5.11652669 -0.10659431 0 0 Z " fill="#117FBF" transform="translate(303,172)"/>
<path d="M0 0 C1.53166168 4.08443115 0.63081652 7.79455657 0 12 C5.94 11.505 5.94 11.505 12 11 C12 11.66 12 12.32 12 13 C6.75614911 14.7479503 2.52677733 15.19392201 -3 15 C-2.67 11.04 -2.34 7.08 -2 3 C-1.34 3 -0.68 3 0 3 C0 2.01 0 1.02 0 0 Z " fill="#157AB8" transform="translate(293,147)"/>
<path d="M0 0 C0.33 0 0.66 0 1 0 C0.85873374 3.06277267 0.71215604 6.12513542 0.5625 9.1875 C0.52318359 10.05181641 0.48386719 10.91613281 0.44335938 11.80664062 C0.23652984 15.95914122 -0.00103531 19.94537862 -1 24 C-0.34 24.33 0.32 24.66 1 25 C0.01 25 -0.98 25 -2 25 C-4.55066942 17.34799173 -2.27794601 7.59315336 0 0 Z " fill="#0A569D" transform="translate(227,159)"/>
<path d="M0 0 C2.97 0.99 5.94 1.98 9 3 C9 3.99 9 4.98 9 6 C8.01 5.67 7.02 5.34 6 5 C6 4.34 6 3.68 6 3 C0.43282467 5.35456323 0.43282467 5.35456323 -5 8 C-5 8.99 -5 9.98 -5 11 C-5.66 11 -6.32 11 -7 11 C-5.72278474 6.00724943 -3.82669043 3.42388092 0 0 Z " fill="#054889" transform="translate(110,134)"/>
<path d="M0 0 C5.96667654 5.81368483 5.96667654 5.81368483 6.09765625 10.4765625 C6.09100795 11.85940867 6.07908295 13.24223728 6.0625 14.625 C6.05798828 15.33140625 6.05347656 16.0378125 6.04882812 16.765625 C6.03703875 18.51045275 6.01910324 20.255237 6 22 C5.01 22.33 4.02 22.66 3 23 C3 23.99 3 24.98 3 26 C2.34 25.67 1.68 25.34 1 25 C1.7425 23.5459375 1.7425 23.5459375 2.5 22.0625 C4.340649 17.70306816 4.78318755 13.67439304 4 9 C2.88183501 6.44903486 1.53258772 4.34677495 0 2 C0 1.34 0 0.68 0 0 Z " fill="#00083E" transform="translate(522,148)"/>
<path d="M0 0 C0.33 0 0.66 0 1 0 C0.38273804 5.67355671 -0.27945952 11.33861055 -1 17 C-0.01 17.33 0.98 17.66 2 18 C-1.75 21 -1.75 21 -4 21 C-3.9123127 18.62337178 -3.80536886 16.25016873 -3.6875 13.875 C-3.66494141 13.20984375 -3.64238281 12.5446875 -3.61914062 11.859375 C-3.37010123 7.24082629 -2.31599822 3.98624895 0 0 Z " fill="#0C8FDA" transform="translate(500,163)"/>
<path d="M0 0 C2.14576637 -0.02685938 4.29162645 -0.04633088 6.4375 -0.0625 C7.63246094 -0.07410156 8.82742187 -0.08570313 10.05859375 -0.09765625 C13 0 13 0 14 1 C14.203125 3.21484375 14.203125 3.21484375 14.25 5.9375 C14.28867188 7.28134766 14.28867188 7.28134766 14.328125 8.65234375 C14.21984375 9.42707031 14.1115625 10.20179688 14 11 C13.01 11.66 12.02 12.32 11 13 C11.33 10.03 11.66 7.06 12 4 C8.37 3.01 4.74 2.02 1 1 C0.67 1.99 0.34 2.98 0 4 C0 2.68 0 1.36 0 0 Z " fill="#1161A4" transform="translate(197,150)"/>
<path d="M0 0 C1.28132813 0.10183594 2.56265625 0.20367187 3.8828125 0.30859375 C4.87023437 0.39238281 5.85765625 0.47617188 6.875 0.5625 C6.875 1.2225 6.875 1.8825 6.875 2.5625 C2.255 2.5625 -2.365 2.5625 -7.125 2.5625 C-7.785 5.2025 -8.445 7.8425 -9.125 10.5625 C-9.455 10.5625 -9.785 10.5625 -10.125 10.5625 C-10.25 3.9375 -10.25 3.9375 -9.125 0.5625 C-6.07230154 -0.96384923 -3.36654311 -0.27544444 0 0 Z " fill="#0C5391" transform="translate(473.125,146.4375)"/>
<path d="M0 0 C1.65 0.33 3.3 0.66 5 1 C5 3.31 5 5.62 5 8 C3.35 8.66 1.7 9.32 0 10 C0 8.66666667 0 7.33333333 0 6 C-0.99 5.67 -1.98 5.34 -3 5 C-2.01 3.35 -1.02 1.7 0 0 Z " fill="#03154F" transform="translate(259,181)"/>
<path d="M0 0 C2.875 0.6875 2.875 0.6875 6 2 C7.375 4.625 7.375 4.625 8 7 C5.69 7 3.38 7 1 7 C-0.0625 5.1875 -0.0625 5.1875 -1 3 C-0.67 2.01 -0.34 1.02 0 0 Z " fill="#010133" transform="translate(256,175)"/>
<path d="M0 0 C0 0.99 0 1.98 0 3 C0.66 3 1.32 3 2 3 C2 3.66 2 4.32 2 5 C-0.64 4.34 -3.28 3.68 -6 3 C-6.33 5.97 -6.66 8.94 -7 12 C-7.33 12 -7.66 12 -8 12 C-7.67 8.04 -7.34 4.08 -7 0 C-3 -1 -3 -1 0 0 Z " fill="#095C9D" transform="translate(509,150)"/>
<path d="M0 0 C0.99 0.33 1.98 0.66 3 1 C3.08121924 2.60332791 3.13929134 4.20784026 3.1875 5.8125 C3.22230469 6.70582031 3.25710937 7.59914062 3.29296875 8.51953125 C2.95081002 11.41647515 2.24606427 12.22555028 0 14 C0 12.35 0 10.7 0 9 C-0.66 9 -1.32 9 -2 9 C-1.505 7.6078125 -1.505 7.6078125 -1 6.1875 C0.14967004 3.07970709 0.14967004 3.07970709 0 0 Z " fill="#01012C" transform="translate(218,151)"/>
<path d="M0 0 C-0.01160156 0.67546875 -0.02320313 1.3509375 -0.03515625 2.046875 C-0.04417969 2.93890625 -0.05320312 3.8309375 -0.0625 4.75 C-0.07410156 5.63171875 -0.08570313 6.5134375 -0.09765625 7.421875 C-0.00826198 9.7818838 0.33087179 11.74498524 1 14 C-0.9375 13.3125 -0.9375 13.3125 -3 12 C-4.38050405 8.17706571 -3.97512292 4.90049167 -3 1 C-1 0 -1 0 0 0 Z " fill="#055188" transform="translate(303,178)"/>
<path d="M0 0 C0.598125 0.20625 1.19625 0.4125 1.8125 0.625 C1.4825 1.57375 1.1525 2.5225 0.8125 3.5 C-0.28909191 6.39562452 -0.28909191 6.39562452 -0.1875 8.625 C-2.6625 7.635 -2.6625 7.635 -5.1875 6.625 C-5.375 4.25 -5.375 4.25 -5.1875 1.625 C-2.1875 -0.375 -2.1875 -0.375 0 0 Z " fill="#030134" transform="translate(247.1875,137.375)"/>
<path d="M0 0 C0.33 0 0.66 0 1 0 C1.0825 1.0725 1.165 2.145 1.25 3.25 C2.073 7.36500001 2.9941762 8.28506237 6 11 C6 11.99 6 12.98 6 14 C0.7704918 11.6557377 0.7704918 11.6557377 -1 9 C-1.31104278 6.24504969 -1.18024801 3.79384412 -1 1 C-0.67 0.67 -0.34 0.34 0 0 Z " fill="#0A2F72" transform="translate(135,180)"/>
<path d="M0 0 C-3 1 -3 1 -6.5 0.9375 C-10.11538937 0.6871024 -10.11538937 0.6871024 -13 3 C-15.6875 2.625 -15.6875 2.625 -18 2 C-18 1.34 -18 0.68 -18 0 C-15.94431276 -0.58690924 -13.87999935 -1.14366277 -11.8125 -1.6875 C-10.08966797 -2.15736328 -10.08966797 -2.15736328 -8.33203125 -2.63671875 C-4.42549065 -3.06263701 -3.06844245 -2.34033746 0 0 Z " fill="#0B5499" transform="translate(436,181)"/>
<path d="M0 0 C1.9375 0.375 1.9375 0.375 4 1 C5.60725635 4.21451269 5.05748185 7.43612536 5 11 C8.3 11 11.6 11 15 11 C10.46780033 13.26609984 8.82227075 12.92735976 4 12 C3.34 9.03 2.68 6.06 2 3 C0.68 3.33 -0.64 3.66 -2 4 C-1.34 2.68 -0.68 1.36 0 0 Z " fill="#1296D2" transform="translate(250,146)"/>
<path d="M0 0 C1 2 1 2 0.328125 4.27734375 C-0.02765625 5.15519531 -0.3834375 6.03304687 -0.75 6.9375 C-1.26820313 8.25041016 -1.26820313 8.25041016 -1.796875 9.58984375 C-2.95642525 11.91270902 -4.05798473 13.30910739 -6 15 C-6.33 14.34 -6.66 13.68 -7 13 C-5.8203125 10.21484375 -5.8203125 10.21484375 -4.125 6.9375 C-3.57070312 5.85339844 -3.01640625 4.76929688 -2.4453125 3.65234375 C-1 1 -1 1 0 0 Z " fill="#064586" transform="translate(235,143)"/>
<path d="M0 0 C2.97 0 5.94 0 9 0 C9.33 0.99 9.66 1.98 10 3 C6.26513121 3.5745952 2.78706732 4 -1 4 C-0.67 2.68 -0.34 1.36 0 0 Z " fill="#010130" transform="translate(358,137)"/>
<path d="M0 0 C1.65 0 3.3 0 5 0 C2.40282608 3.17432368 -0.0270515 4.09388894 -4 5 C-8.00614856 5.15860869 -11.99314304 5.11670457 -16 5 C-16.33 4.34 -16.66 3.68 -17 3 C-16.21753906 3.01160156 -15.43507812 3.02320313 -14.62890625 3.03515625 C-13.61699219 3.04417969 -12.60507813 3.05320313 -11.5625 3.0625 C-10.04849609 3.07990234 -10.04849609 3.07990234 -8.50390625 3.09765625 C-6.05978933 3.28612676 -6.05978933 3.28612676 -5 2 C-3.33382885 1.95936168 -1.66611905 1.957279 0 2 C0 1.34 0 0.68 0 0 Z " fill="#0C70A9" transform="translate(254,191)"/>
<path d="M0 0 C0.33 0 0.66 0 1 0 C1.36567164 6.33830846 1.36567164 6.33830846 -0.3125 9.375 C-3.73085985 12.66675393 -7.51834178 12.08455959 -12 12 C-12 11.67 -12 11.34 -12 11 C-11.195625 10.87625 -10.39125 10.7525 -9.5625 10.625 C-8.716875 10.41875 -7.87125 10.2125 -7 10 C-6.67 9.34 -6.34 8.68 -6 8 C-4.35 8 -2.7 8 -1 8 C-0.67 5.36 -0.34 2.72 0 0 Z " fill="#05559C" transform="translate(172,183)"/>
<path d="M0 0 C0.33 0 0.66 0 1 0 C1.14285714 8.57142857 1.14285714 8.57142857 0 12 C1.32 12 2.64 12 4 12 C4.66 13.98 5.32 15.96 6 18 C0.7704918 15.6557377 0.7704918 15.6557377 -1 13 C-1.29390541 8.44446622 -1.11119437 4.44477749 0 0 Z " fill="#0E5EA3" transform="translate(445,176)"/>
<path d="M0 0 C1.26823485 3.65393537 0.75715321 6.49070026 0.0625 10.25 C-0.13214844 11.32765625 -0.32679688 12.4053125 -0.52734375 13.515625 C-0.68332031 14.33546875 -0.83929688 15.1553125 -1 16 C0.65 15.34 2.3 14.68 4 14 C3.34 15.65 2.68 17.3 2 19 C1.34 18.67 0.68 18.34 0 18 C-0.99 18.33 -1.98 18.66 -3 19 C-2.48446121 12.50149789 -1.53332291 6.33773468 0 0 Z " fill="#1184C7" transform="translate(367,165)"/>
<path d="M0 0 C0.99 0 1.98 0 3 0 C1.63629701 2.99220268 0.05091917 5.29026529 -2.125 7.75 C-2.93324219 8.67039063 -2.93324219 8.67039063 -3.7578125 9.609375 C-4.16773438 10.06828125 -4.57765625 10.5271875 -5 11 C-5.66 10.67 -6.32 10.34 -7 10 C-6.34 8.35 -5.68 6.7 -5 5 C-4.34 5 -3.68 5 -3 5 C-2.690625 4.360625 -2.38125 3.72125 -2.0625 3.0625 C-1 1 -1 1 0 0 Z " fill="#063D7A" transform="translate(390,175)"/>
<path d="M0 0 C1.921875 0.73828125 1.921875 0.73828125 4 2 C6.15297375 6.98636845 6.22769049 12.64927338 6 18 C5.34 17.67 4.68 17.34 4 17 C3.58061552 14.7225093 3.26347995 12.42574456 3 10.125 C2.44034945 4.73175439 2.44034945 4.73175439 0 0 Z " fill="#085FA8" transform="translate(120,139)"/>
<path d="M0 0 C0.33 0 0.66 0 1 0 C0.85973717 2.31284456 0.71264442 4.62527591 0.5625 6.9375 C0.48128906 8.22527344 0.40007812 9.51304687 0.31640625 10.83984375 C0 14 0 14 -1 15 C-1.36760731 17.32817964 -1.70241581 19.6618385 -2 22 C-3.88795643 18.86784934 -4.18031956 17.21308056 -3.3203125 13.671875 C-3.03994141 12.47304687 -3.03994141 12.47304687 -2.75390625 11.25 C-2.54636719 10.425 -2.33882813 9.6 -2.125 8.75 C-1.92519531 7.90953125 -1.72539062 7.0690625 -1.51953125 6.203125 C-1.02538729 4.13242649 -0.51431964 2.06577972 0 0 Z " fill="#0C6CAF" transform="translate(485,165)"/>
<path d="M0 0 C1.81205858 3.07140431 2.22518386 5.02777299 1.8125 8.5625 C1.73644531 9.32691406 1.66039062 10.09132812 1.58203125 10.87890625 C0.90244442 13.35552133 -0.06112271 14.36423561 -2 16 C-1.50130596 10.63108121 -0.97772468 5.30764827 0 0 Z " fill="#0B5399" transform="translate(275,160)"/>
<path d="M0 0 C1.66611905 -0.042721 3.33382885 -0.04063832 5 0 C5.33 0.33 5.66 0.66 6 1 C7.68183948 1.23287008 9.3712416 1.41264166 11.0625 1.5625 C11.98160156 1.64628906 12.90070313 1.73007813 13.84765625 1.81640625 C14.91306641 1.90728516 14.91306641 1.90728516 16 2 C12.30041123 4.46639251 9.29267302 4.56790227 5 4 C2 2.5625 2 2.5625 0 1 C0 0.67 0 0.34 0 0 Z " fill="#094C91" transform="translate(488,192)"/>
<path d="M0 0 C0 0.99 0 1.98 0 3 C-0.66 2.67 -1.32 2.34 -2 2 C-4.55157655 1.9283265 -7.07472971 1.90691558 -9.625 1.9375 C-10.68460938 1.94426758 -10.68460938 1.94426758 -11.765625 1.95117188 C-13.51045275 1.96296125 -15.255237 1.98089676 -17 2 C-17 1.67 -17 1.34 -17 1 C-15.10972377 0.4392482 -13.2124289 -0.09787859 -11.3125 -0.625 C-10.25675781 -0.92664063 -9.20101562 -1.22828125 -8.11328125 -1.5390625 C-4.66182322 -2.05006883 -3.0586325 -1.57755071 0 0 Z " fill="#0978BA" transform="translate(171,180)"/>
<path d="M0 0 C2.10957473 7.70675284 0.82973098 13.72354892 -2 21 C-2.33 21 -2.66 21 -3 21 C-3.43230491 13.65081658 -1.81774185 7.09784913 0 0 Z " fill="#0D69B5" transform="translate(178,160)"/>
<path d="M0 0 C0.66 0 1.32 0 2 0 C2.08131463 1.43655854 2.13933559 2.8744483 2.1875 4.3125 C2.22230469 5.11300781 2.25710938 5.91351563 2.29296875 6.73828125 C2 9 2 9 0.61328125 10.79296875 C-1 12 -1 12 -3 12 C-2.01 8.04 -1.02 4.08 0 0 Z " fill="#054179" transform="translate(515,159)"/>
<path d="M0 0 C0.99 0.33 1.98 0.66 3 1 C3 1.66 3 2.32 3 3 C3.66 3.33 4.32 3.66 5 4 C4.01 4 3.02 4 2 4 C1.34 7.96 0.68 11.92 0 16 C-0.33 16 -0.66 16 -1 16 C-1.02685095 13.52076199 -1.04676547 11.0418116 -1.0625 8.5625 C-1.07506836 7.50192383 -1.07506836 7.50192383 -1.08789062 6.41992188 C-1.09653588 4.61306441 -1.05220011 2.80612397 -1 1 C-0.67 0.67 -0.34 0.34 0 0 Z " fill="#0F61A5" transform="translate(369,149)"/>
<path d="M0 0 C6.33393082 -0.34548714 11.10261508 0.70657253 17 3 C17 3.33 17 3.66 17 4 C12.56464291 4.17059066 9.90556617 3.95278309 6 2 C3.66796188 1.9222654 1.33160941 1.91032272 -1 2 C-0.67 1.34 -0.34 0.68 0 0 Z " fill="#0A65A8" transform="translate(357,134)"/>
<path d="M0 0 C0.33 0 0.66 0 1 0 C1.1953125 6.0546875 1.1953125 6.0546875 1 8 C0.34 8.66 -0.32 9.32 -1 10 C-3.95662966 9.77256695 -5.55033688 9.38764062 -7.8125 7.4375 C-8.204375 6.963125 -8.59625 6.48875 -9 6 C-6.36 6.33 -3.72 6.66 -1 7 C-0.67 4.69 -0.34 2.38 0 0 Z " fill="#084382" transform="translate(313,186)"/>
<path d="M0 0 C3.36555333 2.24370222 3.50753206 2.69532081 4.3125 6.4375 C4.49425781 7.21996094 4.67601562 8.00242188 4.86328125 8.80859375 C5 11 5 11 3 14 C3 12.02 3 10.04 3 8 C2.34 8 1.68 8 1 8 C0.67 5.36 0.34 2.72 0 0 Z " fill="#075999" transform="translate(265,141)"/>
<path d="M0 0 C0.33 1.32 0.66 2.64 1 4 C0.34 4 -0.32 4 -1 4 C-1.20625 4.639375 -1.4125 5.27875 -1.625 5.9375 C-3 8 -3 8 -6.125 8.75 C-7.548125 8.87375 -7.548125 8.87375 -9 9 C-6 6 -3 3 0 0 Z " fill="#0B4F8B" transform="translate(511,171)"/>
<path d="M0 0 C0.33 0 0.66 0 1 0 C0.91266424 1.60517097 0.80447776 3.20921662 0.6875 4.8125 C0.62949219 5.70582031 0.57148437 6.59914062 0.51171875 7.51953125 C-0.06740192 10.32671925 -0.7220142 11.30697846 -3 13 C-3.66 13 -4.32 13 -5 13 C-3.58192622 8.52761347 -1.88695626 4.28853694 0 0 Z " fill="#06407F" transform="translate(95,159)"/>
<path d="M0 0 C0.33 0 0.66 0 1 0 C0.67 4.62 0.34 9.24 0 14 C-0.66 14 -1.32 14 -2 14 C-2 15.65 -2 17.3 -2 19 C-2.33 19 -2.66 19 -3 19 C-3.45510807 12.32508169 -1.7672426 6.40625443 0 0 Z " fill="#1370C0" transform="translate(352,167)"/>
<path d="M0 0 C1.31225809 3.93677426 0.3393954 5.7794262 -0.9375 9.6875 C-1.50791016 11.45673828 -1.50791016 11.45673828 -2.08984375 13.26171875 C-2.39019531 14.16535156 -2.69054687 15.06898438 -3 16 C-3.33 16 -3.66 16 -4 16 C-3.67 11.38 -3.34 6.76 -3 2 C-2.01 2 -1.02 2 0 2 C0 1.34 0 0.68 0 0 Z " fill="#0E68AE" transform="translate(245,154)"/>
<path d="M0 0 C0.99 0.66 1.98 1.32 3 2 C2.67 2.66 2.34 3.32 2 4 C1.34 4 0.68 4 0 4 C0.33 4.99 0.66 5.98 1 7 C0.34 7 -0.32 7 -1 7 C-1.33 7.99 -1.66 8.98 -2 10 C-2.33 7.36 -2.66 4.72 -3 2 C-2.01 1.34 -1.02 0.68 0 0 Z " fill="#01022D" transform="translate(199,136)"/>
<path d="M0 0 C0.33 0 0.66 0 1 0 C1.33 4.95 1.66 9.9 2 15 C1.01 15 0.02 15 -1 15 C-1.10251672 9.87416389 -1.03590199 5.05002222 0 0 Z " fill="#0D65A9" transform="translate(325,174)"/>
<path d="M0 0 C-0.33 2.31 -0.66 4.62 -1 7 C-1.33 7 -1.66 7 -2 7 C-2.33 5.35 -2.66 3.7 -3 2 C-6.63 2 -10.26 2 -14 2 C-14.33 2.66 -14.66 3.32 -15 4 C-15 3.01 -15 2.02 -15 1 C-9.92928099 0.28832014 -5.11791642 -0.10662326 0 0 Z " fill="#18A3E7" transform="translate(303,172)"/>
<path d="M0 0 C1.00796724 3.16069729 0.97083624 5.33511958 0.25 8.5625 C0.09015625 9.32691406 -0.0696875 10.09132812 -0.234375 10.87890625 C-1.08787329 13.24344488 -2.11184497 14.37639417 -4 16 C-3.47606294 10.13190493 -2.23891142 5.45126259 0 0 Z " fill="#0A63A4" transform="translate(183,144)"/>
<path d="M0 0 C4.56958375 1.97322935 7.13463296 3.92236229 10 8 C8.35 7.67 6.7 7.34 5 7 C5 6.01 5 5.02 5 4 C3.35 3.67 1.7 3.34 0 3 C0 2.01 0 1.02 0 0 Z " fill="#07427E" transform="translate(512,140)"/>
<path d="M0 0 C-1.375 1.5 -1.375 1.5 -3 3 C-3.66 3 -4.32 3 -5 3 C-5.33 3.99 -5.66 4.98 -6 6 C-6.99 6 -7.98 6 -9 6 C-9.99 6.495 -9.99 6.495 -11 7 C-8.76456876 1.59770784 -5.88000164 -0.49000014 0 0 Z " fill="#03437D" transform="translate(247,136)"/>
<path d="M0 0 C0.66 0 1.32 0 2 0 C2.36923077 7.50769231 2.36923077 7.50769231 0.5 10 C0.005 10.33 -0.49 10.66 -1 11 C-1.14285714 3.57142857 -1.14285714 3.57142857 0 0 Z " fill="#083979" transform="translate(487,157)"/>
<path d="M0 0 C0.33 0 0.66 0 1 0 C1.21755666 5.4389165 1.10428384 9.87080814 -1 15 C-1.33 15 -1.66 15 -2 15 C-2.19392201 9.47322267 -1.7479503 5.24385089 0 0 Z " fill="#0A589D" transform="translate(355,155)"/>
<path d="M0 0 C0.33 0 0.66 0 1 0 C1.33 2.31 1.66 4.62 2 7 C2.99 7.33 3.98 7.66 5 8 C5 8.66 5 9.32 5 10 C2.03 9.505 2.03 9.505 -1 9 C-1.09765625 2.84765625 -1.09765625 2.84765625 -1 1 C-0.67 0.67 -0.34 0.34 0 0 Z " fill="#04437D" transform="translate(486,138)"/>
<path d="M0 0 C1.45606519 4.52092968 0.27032841 7.51648796 -1 12 C0.98 12.495 0.98 12.495 3 13 C1.35 13 -0.3 13 -2 13 C-2.05416188 11.39620659 -2.09286638 9.79188594 -2.125 8.1875 C-2.14820313 7.29417969 -2.17140625 6.40085938 -2.1953125 5.48046875 C-2 3 -2 3 0 0 Z " fill="#1480BA" transform="translate(151,170)"/>
<path d="M0 0 C0.33 0.66 0.66 1.32 1 2 C-4.24385089 3.7479503 -8.47322267 4.19392201 -14 4 C-14 3.67 -14 3.34 -14 3 C-7.07 1.515 -7.07 1.515 0 0 Z " fill="#085898" transform="translate(304,158)"/>
<path d="M0 0 C3.93673644 1.31224548 6.22719294 2.91910327 9 6 C4.2482602 5.56802365 2.07999946 4.67230705 -1 1 C-0.67 0.67 -0.34 0.34 0 0 Z " fill="#073E83" transform="translate(208,136)"/>
<path d="M0 0 C2.31 0 4.62 0 7 0 C7.66 1.32 8.32 2.64 9 4 C6.1875 4.25 6.1875 4.25 3 4 C1.125 2 1.125 2 0 0 Z " fill="#05306E" transform="translate(400,190)"/>
<path d="M0 0 C0.33 0 0.66 0 1 0 C0.67 2.97 0.34 5.94 0 9 C-0.66 9 -1.32 9 -2 9 C-2.33 10.32 -2.66 11.64 -3 13 C-3.31563182 7.73946963 -2.66590937 4.55426184 0 0 Z " fill="#064F96" transform="translate(500,163)"/>
<path d="M0 0 C1.98 0.66 3.96 1.32 6 2 C6 2.33 6 2.66 6 3 C5.05125 3.061875 4.1025 3.12375 3.125 3.1875 C1.578125 3.5896875 1.578125 3.5896875 0 4 C-1.45291273 6.46255685 -1.45291273 6.46255685 -2 9 C-2.6875 7.3125 -2.6875 7.3125 -3 5 C-1.5625 2.25 -1.5625 2.25 0 0 Z " fill="#0A62A8" transform="translate(311,134)"/>
<path d="M0 0 C1.65 0 3.3 0 5 0 C-0.14285714 5.57142857 -0.14285714 5.57142857 -4 6 C-3.67 5.01 -3.34 4.02 -3 3 C-2.01 3 -1.02 3 0 3 C0 2.01 0 1.02 0 0 Z " fill="#093D7C" transform="translate(508,188)"/>
<path d="M0 0 C0.33 0.99 0.66 1.98 1 3 C-0.75 5.0625 -0.75 5.0625 -3 7 C-4.32 6.67 -5.64 6.34 -7 6 C-4.69 4.02 -2.38 2.04 0 0 Z " fill="#09438A" transform="translate(201,174)"/>
<path d="M0 0 C0.66 0 1.32 0 2 0 C3.38226016 2.76452033 3.09525387 5.0461363 3.0625 8.125 C3.05347656 9.22070312 3.04445313 10.31640625 3.03515625 11.4453125 C3.02355469 12.28835937 3.01195312 13.13140625 3 14 C2.01 14 1.02 14 0 14 C0.165 13.484375 0.33 12.96875 0.5 12.4375 C1.38504441 8.12290849 1.39291284 4.17873852 0 0 Z " fill="#1260A2" transform="translate(380,156)"/>
<path d="M0 0 C2.475 0.495 2.475 0.495 5 1 C5 1.66 5 2.32 5 3 C6.32 3.66 7.64 4.32 9 5 C5.26512223 4.5020163 3.18762365 4.12508244 0 2 C0 1.34 0 0.68 0 0 Z " fill="#05559B" transform="translate(275,191)"/>
<path d="M0 0 C0.99 0.33 1.98 0.66 3 1 C3.80967438 3.91482778 4.21845993 5.46113217 3.0625 8.3125 C2.5365625 9.1478125 2.5365625 9.1478125 2 10 C1.67 10 1.34 10 1 10 C0.67 6.7 0.34 3.4 0 0 Z " fill="#04548C" transform="translate(263,178)"/>
<path d="M0 0 C1.51400391 0.01740234 1.51400391 0.01740234 3.05859375 0.03515625 C4.07050781 0.04417969 5.08242187 0.05320313 6.125 0.0625 C7.29869141 0.07990234 7.29869141 0.07990234 8.49609375 0.09765625 C8.49609375 0.42765625 8.49609375 0.75765625 8.49609375 1.09765625 C7.25859375 1.24203125 6.02109375 1.38640625 4.74609375 1.53515625 C0.55477936 2.01483836 0.55477936 2.01483836 -3.50390625 3.09765625 C-3.83390625 3.75765625 -4.16390625 4.41765625 -4.50390625 5.09765625 C-3.38261259 0.13192717 -3.38261259 0.13192717 0 0 Z " fill="#024184" transform="translate(105.50390625,177.90234375)"/>
<path d="M0 0 C0.9659657 2.60810739 1.02770914 3.89420147 0.3125 6.625 C-1.16625774 9.30084735 -2.17750049 9.96508351 -5 11 C-3.55049545 7.2089881 -1.84827434 3.6125362 0 0 Z " fill="#0B559F" transform="translate(207,163)"/>
<path d="M0 0 C5.57142857 5.14285714 5.57142857 5.14285714 6 9 C3 8 3 8 1.3125 5.0625 C0 2 0 2 0 0 Z " fill="#084184" transform="translate(522,148)"/>
<path d="M0 0 C4.875 4.625 4.875 4.625 6 8 C5.01 8 4.02 8 3 8 C2.67 6.68 2.34 5.36 2 4 C1.34 4 0.68 4 0 4 C0 2.68 0 1.36 0 0 Z " fill="#0C4589" transform="translate(388,146)"/>
<path d="M0 0 C3.93673644 1.31224548 6.22719294 2.91910327 9 6 C8.01 6.33 7.02 6.66 6 7 C5.34 6.01 4.68 5.02 4 4 C1.94074861 3.27617533 1.94074861 3.27617533 0 3 C0 2.01 0 1.02 0 0 Z " fill="#095690" transform="translate(379,140)"/>
<path d="M0 0 C0.99 0.33 1.98 0.66 3 1 C-0.44615385 5.8 -0.44615385 5.8 -3.25 6.8125 C-4.11625 6.9053125 -4.11625 6.9053125 -5 7 C-5 6.34 -5 5.68 -5 5 C-4.34 5 -3.68 5 -3 5 C-3 4.34 -3 3.68 -3 3 C-2.01 3 -1.02 3 0 3 C0 2.01 0 1.02 0 0 Z " fill="#0A4B87" transform="translate(380,185)"/>
<path d="M0 0 C0.33 0 0.66 0 1 0 C0.67 3.63 0.34 7.26 0 11 C-0.66 11 -1.32 11 -2 11 C-2.28571429 3.57142857 -2.28571429 3.57142857 0 0 Z " fill="#0A68B1" transform="translate(318,162)"/>
<path d="M0 0 C0.33 0 0.66 0 1 0 C1.625 2.875 1.625 2.875 2 6 C1.34 6.66 0.68 7.32 0 8 C-0.99 8 -1.98 8 -3 8 C-1.125 2.25 -1.125 2.25 0 0 Z " fill="#063D7A" transform="translate(99,151)"/>
<path d="M0 0 C2.79872437 2.52788007 4.45773019 4.20411134 5 8 C4.34 8 3.68 8 3 8 C3 7.34 3 6.68 3 6 C2.34 6 1.68 6 1 6 C0.67 4.02 0.34 2.04 0 0 Z " fill="#0A448F" transform="translate(217,142)"/>
<path d="M0 0 C-0.33 0.99 -0.66 1.98 -1 3 C-4.3 3 -7.6 3 -11 3 C-11 2.67 -11 2.34 -11 2 C-3.375 0 -3.375 0 0 0 Z " fill="#033B7C" transform="translate(436,191)"/>
<path d="M0 0 C0.33 0 0.66 0 1 0 C1.33 2.64 1.66 5.28 2 8 C1.01 8.33 0.02 8.66 -1 9 C-1.09765625 2.84765625 -1.09765625 2.84765625 -1 1 C-0.67 0.67 -0.34 0.34 0 0 Z " fill="#0C468D" transform="translate(135,180)"/>
<path d="M0 0 C0.33 0.99 0.66 1.98 1 3 C3.31 3 5.62 3 8 3 C6.35 4.32 4.7 5.64 3 7 C2.67 6.01 2.34 5.02 2 4 C1.34 4 0.68 4 0 4 C0 2.68 0 1.36 0 0 Z " fill="#001447" transform="translate(412,180)"/>
<path d="M0 0 C2 1 4 2 6 3 C6 3.66 6 4.32 6 5 C4.35 4.67 2.7 4.34 1 4 C0.67 2.68 0.34 1.36 0 0 Z " fill="#074E88" transform="translate(340,136)"/>
</svg>
